<?xml version="1.0" encoding="UTF-8"?>
<svg width="182mm" height="186.4mm" clip-rule="evenodd" fill-rule="evenodd" image-rendering="optimizeQuality"
     shape-rendering="geometricPrecision" text-rendering="geometricPrecision" version="1.1" viewBox="0 0 182 186.4"
     xml:space="preserve" xmlns="http://www.w3.org/2000/svg">
 <defs>
  <style type="text/css">
   <![CDATA[
    .fil0 {fill:black}
   ]]>
  </style>
 
  
  
  
 </defs>
    <path transform="scale(.26459)"
          d="m278.93 0-2.2695 0.37891-2.2676 0.37695-1.1328 0.37891-1.1328 0.37695-3.0234 1.5117-1.8906 1.1348-1.8906 1.1328-1.8887 1.8906-1.8906 1.8887-1.1328 1.8906-1.1348 1.8887-1.1328 3.0254-1.1328 3.0234 2.2676 34.014 2.2656 34.016-148.91 1.5117-36.283 37.418-36.283 37.416 230.55 17.387 4.9121 52.912 4.9141 52.912-9.0703-6.0469c-1.3775-0.68882-2.7568-1.454-4.1406-2.3262s-2.7738-1.8512-4.1758-2.9648c-1.7318-0.98929-3.6674-1.9826-5.5254-3.082-1.858-1.0994-3.6372-2.306-5.0547-3.7207l-3.4023-2.2676-3.4004-2.2695-3.0254-1.8887-6.0469-3.7774-3.0234-1.8906-7.5586-4.5352-2.6465-1.5117-2.6445-1.5117-3.0234-1.8906-3.0254-1.8887-7.9356-4.5371-7.9375-4.5352-3.4023-1.8887-3.4004-1.8906-5.6699-2.6445-5.6699-2.6465-5.291-2.6465-5.291-2.6445-6.0469-3.0234-4.1582-1.8906-4.1562-1.8887-4.5371-1.8906-4.5352-1.8906-5.291-1.8887-5.2891-1.8906-6.0488-1.8887-6.0469-1.8906-8.3145-1.8887-8.3144-1.8906-5.291-0.75586-5.293-0.75586h-10.205-10.203l-1.8906 0.37891-1.8887 0.37695-3.7812 0.75586-3.7793 0.75586-6.0469 1.5117-1.8906 0.75586-1.8887 0.75586-2.6465 1.1348-2.6445 1.1328-1.1348 0.75586-1.1328 0.75585-1.8906 1.1348-1.8887 1.1328-5.293 3.7812-7.5586 7.5586c-0.49474 0.98929-1.1287 1.6918-1.7949 2.3633-0.66619 0.67153-1.3643 1.3118-1.9844 2.1719l-2.2656 3.0234c-0.18784 0.26059-0.47178 0.88463-0.75586 1.5098-0.28408 0.62513-0.56865 1.2512-0.75781 1.5137l-4.5352 7.5586-1.5117 3.0234-1.5117 3.0254-1.1328 2.6445-1.1348 2.6465-1.5117 4.9121-1.5117 4.9141-1.1328 3.0234-1.1348 3.0234-0.75586 3.4004-0.75586 3.4024-0.75586 3.4004-0.75586 3.4023-0.75586 3.7793-0.75586 3.7793-1.5117 9.0703-1.5117 12.852-0.37891 6.4258-0.37695 6.4238v19.654 19.654l0.37695 6.4238 0.37891 6.4258 0.75586 7.1797 0.75586 7.1816 0.75586 4.9121 0.75586 4.9141 0.37891 3.0234 0.37695 3.0234 1.5117 8.3164 1.1348 5.668 1.1328 5.6699 1.5117 6.0469 1.1348 4.5352 1.1328 4.5371 0.75586 2.6445 0.75586 2.6465 0.75586 2.6445 0.75586 2.6465 0.37891 1.1328 0.37695 1.1348 1.5117 4.5352c0.552 1.1038 0.88531 2.2404 1.1973 3.3828 0.31196 1.1424 0.60436 2.2902 1.0723 3.4199l1.5117 4.5352 1.5117 3.7812 0.37695 1.1328 0.37695 1.1348 0.75586 1.8887 0.75781 1.8906 1.1328 3.0234 1.1328 3.0234 1.5117 3.0234 1.1348 2.6465 1.1328 2.6445 4.1582 8.3164 1.1328 2.2676 1.5117 3.0234 1.1348 2.2656 1.1328 2.2676 2.2695 4.5352 1.8887 3.4024 1.8906 3.4004 0.75586 1.1348 0.75586 1.1348 1.1328 1.8887 1.1348 1.8906 0.75586 1.1328 0.75586 1.1348 1.8887 3.0234 1.8906 3.0234 6.0469 9.0703 1.8906 2.6465 1.8887 2.6445 1.8906 2.6465 1.8887 2.6465 1.5117 1.8887 1.5137 1.8906 1.8887 2.2676 1.8906 2.2676 1.1328 1.5117 1.1348 1.5117 1.8887 2.2676 1.8906 2.2676 11.338 11.338 1.8906 1.5137 1.8887 1.5117 1.8906 1.1328 1.8906 1.1348 2.2676 1.1328 2.2676 1.1348 3.0234 1.5117 1.8887 0.75586 1.8906 0.75586 5.291 1.1328 5.291 1.1348h10.582 10.582l6.0469-1.1348 6.0488-1.1328 4.5352-1.5117 5.668-2.6465 5.6699-2.6445 2.6465-1.5117 2.6445-1.5137 1.8906-1.1328 1.8887-1.1348 3.7812-2.2676 3.7793-2.2676 6.0469-4.5352 2.6445-1.8887 2.6465-1.8906 6.0469-4.5352 4.9141-4.1582 4.9141-4.1562 1.8887-1.5117 1.8906-1.5137 9.0703-7.5586 3.7793-3.4004 3.7793-3.4023 4.1582-3.7793 4.1562-3.7793 4.1582-3.4023 4.1582-3.4004c1.3283-1.3284 3.1129-3.1775 4.7129-4.8086 1.6-1.6311 3.015-3.0456 3.6016-3.5078 0.1867-0.09977 1.0119-0.87491 2.0391-1.8047 1.0272-0.92977 2.2556-2.0139 3.25-2.7305l2.2695-1.8887 2.2676-1.8906 0.37695-0.37891 0.37891-0.37695 0.37695-0.75586 0.37891-0.75586v-1.1328-1.1328l-0.75586-0.75586-10.961-0.37891-10.959-0.37695-4.1582-0.75586-4.1582-0.75781-3.4004-1.1328-3.4024-1.1348-1.8887-1.1328-1.8906-1.1348-1.8906-1.5117-1.8887-1.5117-1.8906-1.8887-1.8887-1.8906-1.5117-1.8887-1.5117-1.8906-2.2676-4.1582-2.2676-4.1562-2.2695-6.4258-2.2676-6.4258-1.5117-4.9121-1.5117-4.9141-1.1328-6.0469-1.1348-6.0469-1.1328-6.4258-1.1348-6.4258-1.1328-4.9141-1.1348-4.9121-1.1348-6.4258-1.1328-6.4258-1.1348-6.0469-1.1328-6.0469-1.5117-7.5586-1.5117-7.5586v-3.7793-3.7793l3.0234-3.0234h4.9141 4.9121l7.5586 1.5117 4.5371 1.1328 4.5352 1.1348c2.564 1.0256 5.1026 1.9178 7.6211 2.8633 2.5186 0.94546 5.0161 1.9437 7.4961 3.1836l4.1582 1.8906 4.1582 1.8887 2.6445 1.1348 2.6465 1.1328 3.0234 1.5117c1.5241 1.0983 3.4932 1.9343 5.4199 2.834 1.9268 0.89965 3.8101 1.8627 5.1602 3.2129l3.7812 2.2676 3.7793 2.2676 4.1562 3.0234 4.1582 3.0234 4.5352 4.5352 4.5352 4.5371 3.0234 6.0469 2.6465 25.701 2.6445 25.699h44.221 44.221l1.8887-19.652 1.8906-19.654 1.1328-4.9141 1.1348-4.9121 2.2676-4.1582 2.2676-4.1562 4.5352-4.5371 4.5352-4.5352 1.5117-1.1328 1.5117-1.1348c1.3051-0.65255 2.606-1.5338 3.875-2.4727 1.269-0.93891 2.5077-1.9351 3.6856-2.8184 1.5307-1.0205 3.1557-2.2004 4.8144-3.291 1.6588-1.0906 3.3506-2.0914 5.0117-2.7559 1.964-0.98212 3.8459-2.0173 5.7129-3.0449s3.7182-2.0488 5.625-3.002l3.4024-1.5117 3.4004-1.5117c1.4286-0.62364 2.9677-1.3016 4.5137-1.957 1.5459-0.65542 3.1-1.288 4.5586-1.8223l3.4004-1.1328 3.4024-1.1348 1.8906-0.75586 1.8887-0.75586 4.5352-1.1348 4.5352-1.1328 3.7812-0.75586 3.7793-0.75586h4.9121 4.9141l3.0234 3.0234v3.7793 3.7793c-0.02645 0.56067-1.369 7.1607-2.7891 14.1s-2.9186 14.216-3.2578 16.135l-0.75586 4.9141-0.75586 4.9141-0.75586 3.7793-0.75586 3.7793-1.1348 6.4258-1.1328 6.4238-1.5117 6.8047-0.75586 3.7793-0.75586 3.7793-1.1348 4.1582-1.1328 4.1562-2.2695 7.5586-1.5117 3.4023-1.5117 3.4024-1.1328 2.2676-1.1348 2.2676-1.1328 1.8887-1.1348 1.8906-1.5117 1.8906-1.5117 1.8887-1.8887 1.8906-1.8906 1.8887-3.7793 2.6465-3.7793 2.6445-3.4023 1.1348-3.4004 1.1328-4.1582 0.75586-4.1582 0.75781-10.961 0.37695-10.959 0.37891-0.37891 0.37695-0.37695 0.37891v1.1328 1.1328l0.37695 0.75586 0.37891 0.75586c0.30197 0.41895 1.3683 1.3197 2.4883 2.2324 1.1199 0.91273 2.2931 1.8371 2.8027 2.3027l1.8887 1.8906 1.8906 1.8887 3.7793 3.4024 3.7793 3.4004 1.8906 1.8906 1.8887 1.8906 2.6465 2.2676 2.6445 2.2676 4.9141 4.1562 4.9141 4.1582 6.0469 6.0469 9.0703 7.5586 9.0703 7.5605 3.0254 2.2676 3.0234 2.2676c3.8e-4 -1.9e-4 7.9365 5.2905 15.873 10.582 7.9365 5.2915 15.873 10.584 15.873 10.584 1.8e-4 -3.8e-4 2.7983 1.5161 5.8984 3.125 3.1002 1.6089 6.5016 3.3096 7.707 3.6777l3.7812 1.1328 3.7793 1.1348 9.0703 1.5117h10.582 10.584l5.291-1.1348 5.291-1.1328c0.4626-0.14097 2.5937-1.0099 4.6777-1.8809 2.0841-0.87096 4.1206-1.7438 4.3926-1.8984l4.1582-3.0234 4.1582-3.0254 13.605-13.605c2.2324-2.2324 4.1372-4.7032 6.043-7.1758 1.9058-2.4726 3.8133-4.9459 6.0508-7.1855l2.6445-4.1582 2.6465-4.1582 6.4258-9.4492 6.4238-9.4473c-1.9e-4 -1.9e-4 2.2674-3.969 4.5352-7.9375 2.2678-3.9685 4.5373-7.9375 4.5371-7.9375l2.6445-4.9121 2.6465-4.9121 1.8887-3.7812 1.8906-3.7793 4.5352-10.582 1.8906-4.5352 1.8887-4.5352 2.6465-7.1816 2.6445-7.1816 3.0234-9.0703 1.8906-6.4258 1.8906-6.4258 3.0234-13.605 2.2676-10.582 2.2676-10.584 0.37695-3.0234 0.37891-3.0234 0.75586-4.9141 0.75586-4.9121 0.37695-4.1562 0.37891-4.1582 0.75586-9.4473 0.75586-9.4492v-19.654-19.654l-0.37891-6.4238-0.37695-6.4258-0.75586-6.4258-0.75586-6.4238-0.75586-4.5371-0.75586-4.5352-0.37891-2.6445-0.37695-2.6465-0.75586-3.4023-0.75586-3.4004-0.75586-3.0234-0.75586-3.0234-0.3789-1.5117-0.37696-1.5117-0.75585-2.2676-0.75586-2.2676-0.75586-2.6445-0.75586-2.6465c-0.31218-0.91352-1.0511-2.7126-1.8145-4.5176-0.76332-1.805-1.5528-3.6152-1.9668-4.5527l-1.8887-4.1582-1.8906-4.1582-1.8887-3.4004-1.8906-3.4023-2.2676-3.4004-2.2676-3.4024-4.1582-4.5352-4.1562-4.5352c-0.41445-0.37567-3.9105-2.9688-7.3496-5.4941-3.4391-2.5253-6.8222-4.984-7.0137-5.0898l-7.5586-3.0234-3.7793-1.1328-3.7793-1.1348-5.6699-1.1328-5.668-1.1348h-10.205-10.203l-5.293 0.75586-5.291 0.75586-6.4258 1.5117-6.4238 1.5117-11.34 3.0234-5.668 1.8906-5.6699 1.8887-4.5293 1.8516-4.5274 1.8496-9.0859 3.8594-5.668 2.6445-5.6699 2.6465-7.5586 3.7793-7.5606 3.7793-9.0684 4.9141-9.0703 4.9121-5.293 3.0234-13.227 7.9375-13.229 7.9375-6.8047 4.5352-12.094 7.5586-7.5586 4.9121-7.5605 4.9141-6.0469 4.1582-6.0469 4.1562c0 1.9e-4 2.4574-27.212 4.9141-54.424 2.4567-27.212 4.9121-54.426 4.9121-54.426l232.82-17.385-36.281-37.039-36.283-37.039-151.25-0.75781 2.6797-33.635 2.6797-33.637-1.1348-3.4023-1.1328-3.4004-1.5117-2.2676-1.5137-2.2695-4.5352-4.5352-2.6445-1.5117-2.6465-1.5117-1.1328-0.37695-1.1348-0.37891-2.6445-0.37695-2.6465-0.37891h-63.496-63.494zm23.434 501.92c-7.6e-4 0-108.85 161.76-108.85 161.76l-2.2676 3.7812v2.2676l0.75586 1.5117 1.5117 1.5117 7.5586 3.7793 6.0469 2.2676 3.7812 1.5117 9.0703 2.2676 6.8027 0.75586h6.0469l3.7793-0.75586 2.2676-1.5117 3.0254-2.2676 6.8027-6.0469c12.99-12.99 27.707-24.907 41.572-37.039l-3.0234 52.912v9.0723l0.75586 3.7793 0.75586 1.5117 0.75586 0.75586 3.0234 0.75586h102.8l3.0234-0.75586 0.75586-0.75586 0.75586-1.5117 0.75586-3.7793v-9.0723l-3.0234-52.912c-3.8e-4 -0.00114 45.356 40.062 45.355 40.062l3.0234 3.0234 3.0234 2.2676 2.2676 1.5117 3.7793 0.75586h6.0469l6.8047-0.75586 6.0469-1.5117 6.8027-2.2676 3.7793-1.5117 2.2676-0.75586 7.5586-3.7793 1.5117-1.5117 0.75586-1.5117v-2.2676c3.8e-4 1.1327-111.12-165.54-111.12-165.54h-83.148z"
          fill="#e5e5e5" stroke-width="3.7794"/>
</svg>
